<svg xmlns="http://www.w3.org/2000/svg" width="4096" height="2305" viewBox="0 0 4096 2305">
  <defs>
    <style>
      .cls-1 {
        fill-rule: evenodd;
      }
    </style>
  </defs>
  <path id="Color_Fill_1" data-name="Color Fill 1" class="cls-1" d="M0,0H4096V1680c0,18.21,4.5,111.48-2,119-19.19,8.92-76.44,3-103,3H3745c-131,0-245.32-6-374-6-59.32,0-122.15-2.37-174,6q-43.5.495-87,1-45,5.505-90,11h-64c-56.87,0-143.7,4.41-185-12-41.22-16.38-64.46-44.79-90-77,3.15-3.99,7.08-5.73,9-11-6.09-5.6-42.76-42.86-44-48-10.39-43.17,46.06-56,30-102-16.72-47.9-70.02-61.14-83-114-45.8-12.65-88.45,11.37-119,20l-28,3c-18.17,6.97-37.59,17.73-69,11-21.28-4.56-35.42-18.57-51-28-19.16-7.13-37.27-.09-50-12-11.45,6.42-10.7,28.79-18,39-14.57,2.97-44.81,4.24-55-4l-12-18c-35.47-.67-59.43,10.71-76,29-13.96-1.39-24.23-9.45-35-13-18-5.93-40.87,1.39-61-5-6.23-1.98-16.81-8.67-24-11-20.8-6.74-63.47,2.08-86-3-16.73-3.77-35.54-11.62-50-15q-29.49.495-59,1-15.495.495-31,1c-2.98,1.46-7.49,8.6-11,10-16.71,6.66-84.33-4.02-88-11-9.65,4.4-7.59,14.79-15,19q-43.5,13.995-87,28c-36.74,5.26-55.61-15.27-75-27-8.73-5.28-66.62-27.22-74-25q-19.995,12.495-40,25l-26,6c-4.08,3.2-5.34,9.83-10,13l-20,6q-7.995,17.505-16,35c-6.73,29.58,1.61,87.1,6,111,1.34,7.32-21.47,117.92-25,124q-13.005,12.495-26,25c-18,13.54-55.97,37.46-78,44q-54.495,7.995-109,16c-34.45,6.23-74.08.67-105,6H809c-40.433,6.15-77.916,6-121,6H631c-90.187,13.69-199.732,6-299,6-110.654,0-239.3,8.11-332-12V0Z"/>
</svg>
