<svg xmlns="http://www.w3.org/2000/svg" width="3000" height="1576" viewBox="0 0 3000 1576">
  <defs>
    <style>
      .cls-1 {
        fill-rule: evenodd;
      }
    </style>
  </defs>
  <path id="Color_Fill_1" data-name="Color Fill 1" class="cls-1" d="M0,0H3000V1576H1900c-11.09-87.5,39.47-138.69,23-238-7.24-43.65-19.23-78.95-29-116q-10.005-46.5-20-93-14.505-36-29-72c-9.75-28.34-6.37-59.283-15-90-8.25-29.368-30.49-44.382-44-67q-4.5-14-9-28l-94-71c-34.48-40.44-63.64-83.375-119-103l-23-3c-16.5-5.192-37.98-16.957-59-19-42-4.083-101.86,31.69-127,48-26.85,17.419-64.22,24.728-90,43-24.8,17.579-65.45,88.412-77,120q-6.495,23.5-13,47l-15,27c-7.37,24.625-9.96,40.22-22,59q-16.995,16.5-34,33c-18.77,22.81-36.23,55.29-48,84q-2.505,27-5,54-5.505,14.505-11,29-0.495,15.495-1,31-3.495,16.995-7,34v117a1239.111,1239.111,0,0,1-12,174H0V0Z"/>
</svg>
